<svg width="60" height="60" viewBox="0 0 60 60" fill="none" xmlns="http://www.w3.org/2000/svg">
<path d="M29.6563 0C23.7908 0 18.0571 1.73931 13.1801 4.99798C8.30319 8.25665 4.50207 12.8883 2.25746 18.3073C0.0128496 23.7263 -0.574443 29.6891 0.56985 35.4419C1.71414 41.1946 4.53863 46.4789 8.68613 50.6264C12.8336 54.7739 18.1179 57.5984 23.8706 58.7427C29.6234 59.887 35.5862 59.2997 41.0052 57.055C46.4242 54.8104 51.0559 51.0093 54.3145 46.1324C57.5732 41.2554 59.3125 35.5217 59.3125 29.6562C59.3042 21.7935 56.1771 14.2551 50.6172 8.69528C45.0574 3.13546 37.519 0.00830323 29.6563 0ZM29.6563 54.75C24.6932 54.75 19.8416 53.2783 15.7149 50.5209C11.5883 47.7636 8.37195 43.8445 6.47266 39.2592C4.57337 34.6739 4.07643 29.6284 5.04468 24.7607C6.01293 19.893 8.40288 15.4217 11.9123 11.9123C15.4217 8.40287 19.893 6.01292 24.7607 5.04467C29.6284 4.07642 34.6739 4.57336 39.2592 6.47265C43.8445 8.37193 47.7636 11.5883 50.521 15.7149C53.2783 19.8416 54.75 24.6932 54.75 29.6562C54.7425 36.3092 52.0962 42.6875 47.3919 47.3919C42.6875 52.0962 36.3092 54.7425 29.6563 54.75ZM40.3952 30.3235C40.6073 30.5354 40.7756 30.787 40.8904 31.0639C41.0052 31.3409 41.0643 31.6377 41.0643 31.9375C41.0643 32.2373 41.0052 32.5341 40.8904 32.8111C40.7756 33.088 40.6073 33.3396 40.3952 33.5515L31.2702 42.6765C31.0584 42.8886 30.8068 43.0569 30.5298 43.1717C30.2529 43.2865 29.9561 43.3455 29.6563 43.3455C29.3565 43.3455 29.0596 43.2865 28.7827 43.1717C28.5057 43.0569 28.2541 42.8886 28.0423 42.6765L18.9173 33.5515C18.4892 33.1234 18.2487 32.5429 18.2487 31.9375C18.2487 31.3321 18.4892 30.7516 18.9173 30.3235C19.3453 29.8955 19.9259 29.655 20.5313 29.655C21.1366 29.655 21.7172 29.8955 22.1452 30.3235L27.375 35.5561V18.25C27.375 17.645 27.6154 17.0647 28.0432 16.6369C28.471 16.2091 29.0512 15.9688 29.6563 15.9688C30.2613 15.9688 30.8415 16.2091 31.2694 16.6369C31.6972 17.0647 31.9375 17.645 31.9375 18.25V35.5561L37.1673 30.3235C37.3791 30.1114 37.6307 29.9431 37.9077 29.8283C38.1846 29.7135 38.4815 29.6545 38.7813 29.6545C39.0811 29.6545 39.3779 29.7135 39.6548 29.8283C39.9318 29.9431 40.1834 30.1114 40.3952 30.3235Z" fill="white"/>
</svg>
