<svg width="26" height="26" viewBox="0 0 26 26" fill="none" xmlns="http://www.w3.org/2000/svg">
<path d="M26 16.25V24.9167C26 25.204 25.8859 25.4795 25.6827 25.6827C25.4795 25.8859 25.204 26 24.9167 26H1.08333C0.796016 26 0.520466 25.8859 0.317301 25.6827C0.114137 25.4795 0 25.204 0 24.9167V16.25C0 15.9627 0.114137 15.6871 0.317301 15.484C0.520466 15.2808 0.796016 15.1667 1.08333 15.1667C1.37065 15.1667 1.6462 15.2808 1.84937 15.484C2.05253 15.6871 2.16667 15.9627 2.16667 16.25V23.8333H23.8333V16.25C23.8333 15.9627 23.9475 15.6871 24.1506 15.484C24.3538 15.2808 24.6293 15.1667 24.9167 15.1667C25.204 15.1667 25.4795 15.2808 25.6827 15.484C25.8859 15.6871 26 15.9627 26 16.25ZM12.2335 17.0165C12.3342 17.1172 12.4536 17.1971 12.5851 17.2516C12.7167 17.3061 12.8576 17.3342 13 17.3342C13.1424 17.3342 13.2833 17.3061 13.4149 17.2516C13.5464 17.1971 13.6658 17.1172 13.7665 17.0165L19.1831 11.5998C19.2838 11.4991 19.3636 11.3796 19.4181 11.2481C19.4726 11.1166 19.5006 10.9757 19.5006 10.8333C19.5006 10.691 19.4726 10.55 19.4181 10.4185C19.3636 10.287 19.2838 10.1675 19.1831 10.0669C19.0825 9.96622 18.963 9.88638 18.8315 9.83191C18.7 9.77743 18.559 9.7494 18.4167 9.7494C18.2743 9.7494 18.1334 9.77743 18.0019 9.83191C17.8704 9.88638 17.7509 9.96622 17.6502 10.0669L14.0833 13.6351V1.08333C14.0833 0.796016 13.9692 0.520465 13.766 0.317301C13.5629 0.114137 13.2873 0 13 0C12.7127 0 12.4371 0.114137 12.234 0.317301C12.0308 0.520465 11.9167 0.796016 11.9167 1.08333V13.6351L8.34979 10.0669C8.14651 9.8636 7.87081 9.7494 7.58333 9.7494C7.29586 9.7494 7.02015 9.8636 6.81687 10.0669C6.6136 10.2702 6.4994 10.5459 6.4994 10.8333C6.4994 11.1208 6.6136 11.3965 6.81687 11.5998L12.2335 17.0165Z" fill="black"/>
</svg>
