<svg width="246" height="199" viewBox="0 0 246 199" fill="none" xmlns="http://www.w3.org/2000/svg">
<path d="M61.5 11.5312C51.6171 11.5313 41.9562 14.4619 33.7389 19.9525C25.5216 25.4431 19.1169 33.2472 15.3349 42.3778C11.5529 51.5084 10.5634 61.5554 12.4914 71.2484C14.4195 80.9414 19.1785 89.845 26.1668 96.8332C33.155 103.821 42.0586 108.581 51.7516 110.509C61.4446 112.437 71.4916 111.447 80.6222 107.665C89.7528 103.883 97.5569 97.4785 103.048 89.2611C108.538 81.0438 111.469 71.3829 111.469 61.5C111.455 48.2518 106.186 35.5501 96.8178 26.1822C87.4499 16.8143 74.7483 11.5452 61.5 11.5312ZM98.2655 82.362H82.1121L77.663 76.2312L83.7313 58.5595L90.9383 56.21L103.546 65.8819C102.949 71.6823 101.151 77.2949 98.2655 82.362ZM19.4686 65.8819L32.0521 56.2148L39.2591 58.5643L45.3274 76.236L40.8879 82.362H24.7346C21.8457 77.2956 20.0441 71.683 19.4446 65.8819H19.4686ZM24.2733 41.5509L26.9207 50.4877L19.5599 56.1043C20.2125 51.0082 21.7955 46.0752 24.2301 41.5509H24.2733ZM52.3711 73.0312L46.8649 57.0076L61.5 46.9466L76.1351 57.0076L70.6289 73.0312H52.3711ZM96.1274 50.4877L98.7748 41.5509C101.209 46.0752 102.792 51.0082 103.445 56.1043L96.1274 50.4877ZM93.1485 33.4887L88.5792 48.9021L81.3386 51.2516L65.3438 40.2585V32.7728L79.3206 23.1634C84.5849 25.6253 89.2893 29.1392 93.1437 33.4887H93.1485ZM70.1821 20.1172L61.5 26.0846L52.818 20.1172C58.544 18.9192 64.456 18.9192 70.1821 20.1172ZM43.6794 23.1634L57.6563 32.7728V40.2585L41.6663 51.2516L34.4256 48.9021L29.8563 33.4887C33.7108 29.1392 38.4151 25.6253 43.6794 23.1634ZM30.3416 90.0495H40.1288L43.5737 99.7886C38.5712 97.4343 34.0764 94.1261 30.3416 90.0495ZM52.8516 102.883L47.1436 86.8255L51.5783 80.7188H71.4217L75.8564 86.8255L70.1725 102.883C64.453 104.081 58.5471 104.081 52.8276 102.883H52.8516ZM79.4503 99.7886L82.8953 90.0495H92.6824C88.9406 94.1286 84.4374 97.437 79.4263 99.7886H79.4503Z" fill="white"/>
<path d="M120 39.1671C203.13 33.4852 231.538 119.193 231.538 119.193" stroke="white"/>
<path d="M124 57.4183C206.153 71.3404 213.723 161.316 213.723 161.316" stroke="white"/>
<path d="M123 82.786C202.419 107.996 197.405 198.15 197.405 198.15" stroke="white"/>
</svg>
